PathFileType	4	(X/Y/Z)	 control3min.trc
DataRate	CameraRate	NumFrames	NumMarkers	Units	OrigDataRate	OrigDataStartFrame	OrigNumFrames
200	200	7	43	m	200	1	1000
Frame#	Time	C7			LSH			RSH			MAN			RASI			LASI			HIPR			HIPL			RPSI			LPSI			COX			RTHI1			RTHI2			RTHI3			RTHI4			RLKN			RMKN			RSHA1			RSHA2			RSHA3			RSHA4			RLMAL			RMMAL			RHEEL			RMET5			RMET1			RTOE			LTHI1			LTHI2			LTHI3			LTHI4			LLKN			LMKN			LSHA1			LSHA2			LSHA3			LSHA4			LLMAL			LMMAL			LHEEL			LMET5			LMET1			LTOE			
		X1	Y1	Z1	X2	Y2	Z2	X3	Y3	Z3	X4	Y4	Z4	X5	Y5	Z5	X6	Y6	Z6	X7	Y7	Z7	X8	Y8	Z8	X9	Y9	Z9	X10	Y10	Z10	X11	Y11	Z11	X12	Y12	Z12	X13	Y13	Z13	X14	Y14	Z14	X15	Y15	Z15	X16	Y16	Z16	X17	Y17	Z17	X18	Y18	Z18	X19	Y19	Z19	X20	Y20	Z20	X21	Y21	Z21	X22	Y22	Z22	X23	Y23	Z23	X24	Y24	Z24	X25	Y25	Z25	X26	Y26	Z26	X27	Y27	Z27	X28	Y28	Z28	X29	Y29	Z29	X30	Y30	Z30	X31	Y31	Z31	X32	Y32	Z32	X33	Y33	Z33	X34	Y34	Z34	X35	Y35	Z35	X36	Y36	Z36	X37	Y37	Z37	X38	Y38	Z38	X39	Y39	Z39	X40	Y40	Z40	X41	Y41	Z41	X42	Y42	Z42	X43	Y43	Z43	
1	0.0050	-0.162458	1.533173	-0.566838	-0.108550	1.491028	-0.779392	-0.068370	1.486056	-0.362812	-0.028445	1.454503	-0.573942	-0.068586	1.005466	-0.446042	-0.090914	1.012981	-0.680730	-0.151152	1.060998	-0.391009	-0.179365	1.050199	-0.715711	-0.259135	1.043108	-0.496621	-0.261643	1.045300	-0.598934	-0.263086	1.042539	-0.546135	-0.156335	0.729178	-0.356098	-0.148061	0.669407	-0.353881	-0.083699	0.675032	-0.349203	-0.083502	0.736591	-0.350966	-0.135515	0.480038	-0.357039	-0.127620	0.463796	-0.487715	-0.241653	0.339661	-0.339735	-0.262835	0.302713	-0.344039	-0.206770	0.279090	-0.341462	-0.192298	0.316226	-0.341635	-0.310364	0.110751	-0.354437	-0.282843	0.111569	-0.447962	-0.374412	0.087536	-0.403519	-0.216608	0.030990	-0.326380	-0.167656	0.044058	-0.406351	-0.141049	0.033315	-0.399203	-0.169660	0.744660	-0.744424	-0.158034	0.684125	-0.746172	-0.094224	0.690439	-0.756110	-0.098539	0.750423	-0.756300	-0.140675	0.478739	-0.734982	-0.110698	0.467493	-0.612003	-0.241968	0.325605	-0.741914	-0.255559	0.283288	-0.735254	-0.204216	0.266279	-0.733274	-0.185497	0.302189	-0.739428	-0.298205	0.107683	-0.724031	-0.276890	0.110420	-0.632001	-0.366094	0.088511	-0.675658	-0.202079	0.026929	-0.747138	-0.162991	0.044950	-0.664510	-0.136865	0.032764	-0.665918	
2	0.0100	-0.162866	1.529765	-0.567413	-0.108696	1.486997	-0.779976	-0.068613	1.482514	-0.363354	-0.028002	1.450335	-0.574355	-0.068685	1.001721	-0.445920	-0.091154	1.009327	-0.680847	-0.151405	1.056459	-0.390578	-0.179856	1.045173	-0.716486	-0.259571	1.038429	-0.496741	-0.262415	1.040564	-0.599240	-0.263730	1.037841	-0.546418	-0.157136	0.726214	-0.356374	-0.148949	0.666448	-0.354171	-0.084590	0.671949	-0.349010	-0.084341	0.733486	-0.350761	-0.136486	0.476823	-0.357140	-0.127396	0.460177	-0.487479	-0.242406	0.336529	-0.340257	-0.263905	0.299696	-0.344483	-0.207797	0.275955	-0.341965	-0.193259	0.313061	-0.342110	-0.311719	0.107915	-0.355014	-0.284199	0.108683	-0.448827	-0.375870	0.083989	-0.404360	-0.217185	0.030607	-0.325988	-0.167908	0.043933	-0.406356	-0.141319	0.033142	-0.399198	-0.170060	0.740688	-0.744245	-0.158560	0.680178	-0.746168	-0.094810	0.686388	-0.756778	-0.099028	0.746379	-0.757000	-0.140795	0.475442	-0.735527	-0.111113	0.463828	-0.612645	-0.242452	0.322517	-0.742404	-0.256054	0.280294	-0.735690	-0.204782	0.263172	-0.733379	-0.186002	0.299045	-0.739535	-0.299238	0.105208	-0.724004	-0.278265	0.108093	-0.631884	-0.367441	0.085231	-0.676067	-0.202226	0.026510	-0.747646	-0.163364	0.044736	-0.664451	-0.137072	0.032704	-0.665781	
3	0.0150	-0.163402	1.526661	-0.568013	-0.108806	1.483433	-0.780419	-0.068803	1.479354	-0.363933	-0.027614	1.446456	-0.574744	-0.068883	0.998224	-0.445886	-0.091420	1.005910	-0.681054	-0.151646	1.052016	-0.390149	-0.180524	1.040295	-0.717249	-0.260039	1.034109	-0.496865	-0.263292	1.036086	-0.599450	-0.264416	1.033369	-0.546636	-0.157916	0.723543	-0.356631	-0.149826	0.663818	-0.354439	-0.085474	0.669168	-0.348876	-0.085144	0.730724	-0.350623	-0.137393	0.473928	-0.357291	-0.127744	0.457152	-0.487419	-0.243023	0.333598	-0.340609	-0.264597	0.296806	-0.344832	-0.208555	0.273015	-0.342522	-0.194028	0.310084	-0.342700	-0.312726	0.105170	-0.355571	-0.285330	0.105932	-0.449590	-0.377189	0.080808	-0.404944	-0.217698	0.030262	-0.325633	-0.168166	0.043751	-0.406370	-0.141509	0.033054	-0.399202	-0.170587	0.737345	-0.744197	-0.159199	0.676846	-0.746287	-0.095498	0.682999	-0.757400	-0.099649	0.742994	-0.757621	-0.141172	0.472312	-0.735963	-0.111559	0.460434	-0.613221	-0.243005	0.319606	-0.742758	-0.256629	0.277422	-0.735917	-0.205408	0.260218	-0.733314	-0.186567	0.296061	-0.739523	-0.300212	0.102695	-0.723749	-0.279512	0.105721	-0.631554	-0.368679	0.082152	-0.676119	-0.202411	0.026238	-0.747983	-0.163726	0.044576	-0.664334	-0.137297	0.032668	-0.665684	
4	0.0200	-0.163922	1.523658	-0.568593	-0.108905	1.479995	-0.780845	-0.068991	1.476388	-0.364510	-0.027259	1.442727	-0.575121	-0.069091	0.994821	-0.445872	-0.091687	1.002584	-0.681288	-0.151881	1.047627	-0.389722	-0.181247	1.035480	-0.717996	-0.260495	1.029919	-0.496967	-0.264161	1.031747	-0.599630	-0.265094	1.029037	-0.546824	-0.158665	0.720968	-0.356892	-0.150674	0.661279	-0.354712	-0.086329	0.666488	-0.348757	-0.085920	0.728051	-0.350498	-0.138286	0.471116	-0.357464	-0.128211	0.454298	-0.487408	-0.243630	0.330730	-0.340964	-0.265309	0.294000	-0.345169	-0.209289	0.270150	-0.343081	-0.194773	0.307178	-0.343296	-0.313701	0.102514	-0.356113	-0.286449	0.103269	-0.450330	-0.378442	0.077730	-0.405521	-0.218183	0.029943	-0.325295	-0.168421	0.043581	-0.406394	-0.141700	0.032969	-0.399207	-0.171148	0.734152	-0.744156	-0.159847	0.673667	-0.746396	-0.096200	0.679779	-0.758007	-0.100301	0.739779	-0.758223	-0.141582	0.469258	-0.736357	-0.111990	0.457144	-0.613770	-0.243567	0.316772	-0.743021	-0.257214	0.274631	-0.736065	-0.206039	0.257346	-0.733204	-0.187145	0.293161	-0.739467	-0.301196	0.100239	-0.723434	-0.280723	0.103381	-0.631165	-0.369864	0.079138	-0.676069	-0.202596	0.025991	-0.748285	-0.164066	0.044423	-0.664219	-0.137503	0.032633	-0.665594	
5	0.0250	-0.164474	1.520938	-0.569155	-0.108972	1.476943	-0.781187	-0.069152	1.473833	-0.365091	-0.026977	1.439354	-0.575470	-0.069353	0.991670	-0.445930	-0.091965	0.999498	-0.681596	-0.152100	1.043382	-0.389302	-0.182123	1.030845	-0.718697	-0.260942	1.026105	-0.497040	-0.265039	1.027765	-0.599729	-0.265760	1.025042	-0.546942	-0.159355	0.718666	-0.357152	-0.151465	0.659018	-0.354979	-0.087134	0.664079	-0.348698	-0.086634	0.725664	-0.350436	-0.139119	0.468568	-0.357686	-0.129058	0.451930	-0.487530	-0.244154	0.328062	-0.341251	-0.265856	0.291389	-0.345461	-0.209866	0.267492	-0.343666	-0.195394	0.304477	-0.343947	-0.314487	0.100052	-0.356616	-0.287435	0.100814	-0.450991	-0.379548	0.074965	-0.405949	-0.218610	0.029670	-0.325000	-0.168673	0.043403	-0.406438	-0.141849	0.032926	-0.399217	-0.171798	0.731429	-0.744171	-0.160558	0.670947	-0.746527	-0.096960	0.677066	-0.758569	-0.101042	0.737067	-0.758763	-0.142142	0.466403	-0.736639	-0.112405	0.454139	-0.614241	-0.244175	0.314135	-0.743098	-0.257844	0.272008	-0.736014	-0.206702	0.254662	-0.732958	-0.187765	0.290462	-0.739300	-0.302145	0.097863	-0.722939	-0.281801	0.101080	-0.630604	-0.370928	0.076311	-0.675719	-0.202799	0.025839	-0.748460	-0.164370	0.044302	-0.664074	-0.137691	0.032612	-0.665530	
6	0.0300	-0.164989	1.518509	-0.569674	-0.108992	1.474250	-0.781480	-0.069293	1.471677	-0.365675	-0.026779	1.436418	-0.575783	-0.069623	0.988786	-0.446046	-0.092246	0.996673	-0.681966	-0.152303	1.039354	-0.388897	-0.183136	1.026438	-0.719336	-0.261342	1.022720	-0.497066	-0.265850	1.024248	-0.599758	-0.266366	1.021499	-0.547000	-0.159952	0.716632	-0.357429	-0.152167	0.657009	-0.355262	-0.087844	0.661939	-0.348695	-0.087252	0.723538	-0.350428	-0.139884	0.466273	-0.357953	-0.130151	0.449998	-0.487758	-0.244645	0.325647	-0.341553	-0.266344	0.289012	-0.345759	-0.210364	0.265085	-0.344246	-0.195925	0.302028	-0.344578	-0.315158	0.097845	-0.357101	-0.288366	0.098619	-0.451591	-0.380472	0.072486	-0.406333	-0.218986	0.029434	-0.324753	-0.168909	0.043266	-0.406516	-0.141989	0.032892	-0.399234	-0.172515	0.729084	-0.744179	-0.161290	0.668613	-0.746612	-0.097758	0.674773	-0.759092	-0.101850	0.734770	-0.759247	-0.142776	0.463790	-0.736801	-0.112766	0.451450	-0.614604	-0.244814	0.311730	-0.742934	-0.258494	0.269621	-0.735753	-0.207377	0.252220	-0.732583	-0.188409	0.288016	-0.739022	-0.303071	0.095667	-0.722280	-0.282746	0.098910	-0.629892	-0.371855	0.073701	-0.675124	-0.203003	0.025754	-0.748533	-0.164613	0.044198	-0.663916	-0.137828	0.032592	-0.665479	
7	0.0350	-0.165455	1.516420	-0.570144	-0.108986	1.471971	-0.781743	-0.069419	1.469977	-0.366224	-0.026666	1.434003	-0.576052	-0.069891	0.986231	-0.446234	-0.092522	0.994170	-0.682404	-0.152497	1.035644	-0.388536	-0.184274	1.022399	-0.719885	-0.261675	1.019887	-0.497048	-0.266531	1.021331	-0.599724	-0.266876	1.018549	-0.546988	-0.160435	0.714912	-0.357707	-0.152748	0.655304	-0.355548	-0.088430	0.660127	-0.348775	-0.087749	0.721728	-0.350500	-0.140543	0.464292	-0.358281	-0.131414	0.448507	-0.488087	-0.245064	0.323545	-0.341855	-0.266760	0.286940	-0.346062	-0.210764	0.262998	-0.344825	-0.196346	0.299907	-0.345181	-0.315684	0.095974	-0.357549	-0.289182	0.096752	-0.452125	-0.381209	0.070363	-0.406656	-0.219306	0.029249	-0.324564	-0.169116	0.043157	-0.406616	-0.142109	0.032867	-0.399259	-0.173280	0.727122	-0.744161	-0.162041	0.666655	-0.746617	-0.098594	0.672876	-0.759549	-0.102709	0.732857	-0.759679	-0.143474	0.461489	-0.736823	-0.113043	0.449169	-0.614847	-0.245470	0.309593	-0.742515	-0.259158	0.267498	-0.735266	-0.208043	0.250071	-0.732080	-0.189073	0.285863	-0.738610	-0.303936	0.093711	-0.721456	-0.283496	0.096900	-0.629024	-0.372619	0.071346	-0.674262	-0.203207	0.025739	-0.748497	-0.164785	0.044115	-0.663740	-0.137906	0.032566	-0.665442	
